<svg id="visual" viewBox="0 0 900 600" width="900" height="600" xmlns="http://www.w3.org/2000/svg" xmlns:xlink="http://www.w3.org/1999/xlink" version="1.1"><rect x="0" y="0" width="900" height="600" fill="#FFF"></rect><defs><linearGradient id="grad1_0" x1="33.3%" y1="100%" x2="100%" y2="0%"><stop offset="20%" stop-color="#ccd5ae" stop-opacity="1"></stop><stop offset="80%" stop-color="#ccd5ae" stop-opacity="1"></stop></linearGradient></defs><defs><linearGradient id="grad1_1" x1="33.3%" y1="100%" x2="100%" y2="0%"><stop offset="20%" stop-color="#ccd5ae" stop-opacity="1"></stop><stop offset="80%" stop-color="#ffffff" stop-opacity="1"></stop></linearGradient></defs><defs><linearGradient id="grad2_0" x1="0%" y1="100%" x2="66.7%" y2="0%"><stop offset="20%" stop-color="#ccd5ae" stop-opacity="1"></stop><stop offset="80%" stop-color="#ccd5ae" stop-opacity="1"></stop></linearGradient></defs><defs><linearGradient id="grad2_1" x1="0%" y1="100%" x2="66.7%" y2="0%"><stop offset="20%" stop-color="#ffffff" stop-opacity="1"></stop><stop offset="80%" stop-color="#ccd5ae" stop-opacity="1"></stop></linearGradient></defs><g transform="translate(900, 600)"><path d="M-432.7 0C-403.3 -37.5 -373.9 -74.9 -364.3 -118.4C-354.6 -161.8 -364.6 -211.2 -350 -254.3C-335.5 -297.4 -296.5 -334.2 -252.7 -347.9C-209 -361.5 -160.6 -352.1 -117.7 -362.4C-74.8 -372.6 -37.4 -402.6 0 -432.7L0 0Z" fill="#e6ead6"></path><path d="M-216.3 0C-201.7 -18.7 -187 -37.5 -182.1 -59.2C-177.3 -80.9 -182.3 -105.6 -175 -127.2C-167.8 -148.7 -148.2 -167.1 -126.4 -173.9C-104.5 -180.8 -80.3 -176 -58.9 -181.2C-37.4 -186.3 -18.7 -201.3 0 -216.3L0 0Z" fill="#ccd5ae"></path></g><g transform="translate(0, 0)"><path d="M432.7 0C396.8 35.5 361 71 350.9 114C340.9 157.1 356.7 207.7 345.5 251C334.2 294.2 295.8 330.1 254.3 350C212.8 370 168.1 374.1 125.2 385.2C82.2 396.3 41.1 414.5 0 432.7L0 0Z" fill="#e6ead6"></path><path d="M216.3 0C198.4 17.7 180.5 35.5 175.5 57C170.5 78.5 178.4 103.9 172.7 125.5C167.1 147.1 147.9 165 127.2 175C106.4 185 84 187 62.6 192.6C41.1 198.2 20.6 207.2 0 216.3L0 0Z" fill="#ccd5ae"></path></g></svg>