<svg id="visual" viewBox="0 0 900 600" width="900" height="600" xmlns="http://www.w3.org/2000/svg" xmlns:xlink="http://www.w3.org/1999/xlink" version="1.1"><path d="M0 302L21.5 308.2C43 314.3 86 326.7 128.8 345C171.7 363.3 214.3 387.7 257.2 399.5C300 411.3 343 410.7 385.8 418.7C428.7 426.7 471.3 443.3 514.2 430.8C557 418.3 600 376.7 642.8 372.3C685.7 368 728.3 401 771.2 397.3C814 393.7 857 353.3 878.5 333.2L900 313L900 601L878.5 601C857 601 814 601 771.2 601C728.3 601 685.7 601 642.8 601C600 601 557 601 514.2 601C471.3 601 428.7 601 385.8 601C343 601 300 601 257.2 601C214.3 601 171.7 601 128.8 601C86 601 43 601 21.5 601L0 601Z" fill="#E9EDC9" stroke-linecap="round" stroke-linejoin="miter"></path></svg>