<?xml version="1.0" encoding="UTF-8" standalone="no"?>
<!-- Uploaded to: SVG Repo, www.svgrepo.com, Transformed by: SVG Repo Mixer Tools -->

<svg
   width="800px"
   height="800px"
   viewBox="0 0 16 16"
   fill="#E9EDC9"
   class="bi bi-people-fill"
   version="1.1"
   id="svg11"
   sodipodi:docname="about.svg"
   inkscape:version="1.2.2 (732a01da63, 2022-12-09)"
   xmlns:inkscape="http://www.inkscape.org/namespaces/inkscape"
   xmlns:sodipodi="http://sodipodi.sourceforge.net/DTD/sodipodi-0.dtd"
   xmlns="http://www.w3.org/2000/svg"
   xmlns:svg="http://www.w3.org/2000/svg">
  <defs
     id="defs15" />
  <sodipodi:namedview
     id="namedview13"
     pagecolor="#ffffff"
     bordercolor="#000000"
     borderopacity="0.25"
     inkscape:showpageshadow="2"
     inkscape:pageopacity="0.0"
     inkscape:pagecheckerboard="0"
     inkscape:deskcolor="#d1d1d1"
     showgrid="false"
     inkscape:zoom="1.2525"
     inkscape:cx="400.3992"
     inkscape:cy="400"
     inkscape:window-width="1920"
     inkscape:window-height="1009"
     inkscape:window-x="-8"
     inkscape:window-y="-8"
     inkscape:window-maximized="1"
     inkscape:current-layer="svg11" />
  <g
     id="SVGRepo_bgCarrier"
     stroke-width="0" />
  <g
     id="SVGRepo_tracerCarrier"
     stroke-linecap="round"
     stroke-linejoin="round" />
  <g
     id="SVGRepo_iconCarrier">
    <path
       d="M7 14s-1 0-1-1 1-4 5-4 5 3 5 4-1 1-1 1H7zm4-6a3 3 0 1 0 0-6 3 3 0 0 0 0 6z"
       id="path4" />
    <path
       fill-rule="evenodd"
       d="M5.216 14A2.238 2.238 0 0 1 5 13c0-1.355.68-2.75 1.936-3.72A6.325 6.325 0 0 0 5 9c-4 0-5 3-5 4s1 1 1 1h4.216z"
       id="path6" />
    <path
       d="M4.5 8a2.5 2.5 0 1 0 0-5 2.5 2.5 0 0 0 0 5z"
       id="path8" />
  </g>
  <path
     style="fill:#ccd5ae;stroke-width:0.798403"
     d="m 215.56886,399.13064 c -56.16864,-3.77358 -104.30479,-47.61557 -113.37682,-103.26265 -5.237719,-32.12771 1.40426,-63.13163 19.33313,-90.24466 6.96467,-10.53235 23.19808,-26.84051 33.69428,-33.84941 32.6972,-21.83377 72.14514,-27.18015 109.35514,-14.82089 41.74929,13.86698 72.57239,48.48079 82.52789,92.67741 1.53926,6.83342 1.76703,10.13817 1.75195,25.41946 -0.0148,15.04484 -0.26498,18.674 -1.74343,25.29562 -8.38268,37.54415 -31.56303,67.98658 -64.89421,85.22468 -14.56093,7.53056 -30.5657,12.26501 -44.70186,13.22346 -3.72703,0.2527 -8.21353,0.56466 -9.97002,0.69323 -1.75649,0.12858 -7.14571,-0.0317 -11.97605,-0.35625 z"
     id="path867"
     transform="scale(0.02)" />
  <path
     style="fill:#ccd5ae;stroke-width:0.798403"
     d="M 39.121756,698.2179 C 28.117217,695.79127 18.85927,690.79301 12.319435,683.74763 7.5415042,678.60037 4.9367356,673.99461 2.6593596,666.66667 -0.11267114,657.74707 0.06778419,640.792 3.0884847,626.34731 9.8230132,594.14346 26.465826,560.07459 48.136251,534.13174 79.700551,496.34439 123.58888,470.20126 175.26579,458.404 c 21.73223,-4.96122 40.24109,-7.12093 67.04958,-7.82369 33.34711,-0.87415 65.35491,2.8318 94.75115,10.97058 l 8.92281,2.4704 -7.326,6.03293 c -4.0293,3.31811 -12.01711,10.73966 -17.75068,16.49235 -38.11593,38.24297 -61.41477,83.47188 -69.13682,134.21191 -2.48554,16.33204 -2.50391,41.43098 -0.0386,52.81869 1.46842,6.78304 5.27434,18.8487 7.70505,24.42682 0.57823,1.32696 -4.82408,1.39401 -107.46061,1.33373 -86.507541,-0.0508 -109.025234,-0.27423 -112.859874,-1.11982 z"
     id="path869"
     transform="scale(0.02)" />
  <path
     style="fill:#ccd5ae;stroke-width:0.798403"
     d="m 337.32535,697.77168 c -19.21,-4.97487 -31.65012,-17.14782 -35.58113,-34.81696 -3.62462,-16.29197 1.23457,-44.99697 12.14369,-71.73716 21.41431,-52.49029 62.32897,-94.33316 114.81897,-117.4238 36.339,-15.98573 72.77464,-22.9425 120.59452,-23.02548 30.9427,-0.0537 50.41668,1.91101 75.2664,7.59351 44.45005,10.16462 81.28246,29.65824 111.42707,58.97298 25.78337,25.07357 43.60839,53.35156 54.87596,87.05645 6.07602,18.17527 8.22226,29.81172 8.2465,44.71058 0.0183,11.24331 -0.16986,12.94077 -2.05707,18.55803 -4.78792,14.25116 -14.82743,23.82524 -30.59319,29.17486 l -6.38723,2.16731 -208.38323,0.16021 c -204.00626,0.15685 -208.50901,0.12763 -214.37126,-1.39053 z"
     id="path871"
     transform="scale(0.02)" />
  <path
     style="fill:#ccd5ae;stroke-width:0.798403"
     d="m 539.72056,399.12687 c -11.84132,-0.73481 -26.97141,-3.74192 -37.97075,-7.54669 -55.28872,-19.12486 -94.17172,-67.82494 -100.50485,-125.88005 -6.10991,-56.00888 20.84179,-111.64481 68.9163,-142.26273 10.46406,-6.66439 27.03476,-14.01948 39.68909,-17.61642 17.12246,-4.867 42.24791,-6.574222 60.05056,-4.08031 23.30151,3.26423 44.31733,11.27407 63.70078,24.27854 50.56313,33.92309 75.72074,96.59307 62.51222,155.72385 -9.2209,41.27931 -34.27536,75.89828 -70.35674,97.21532 -19.10511,11.28738 -42.69826,18.75732 -62.81879,19.88935 -3.98737,0.22433 -8.68688,0.51269 -10.44337,0.64078 -1.75649,0.1281 -7.50499,-0.0346 -12.77445,-0.36164 z"
     id="path873"
     transform="scale(0.02)" />
</svg>
