<?xml version="1.0" encoding="UTF-8" standalone="no"?>
<!-- Uploaded to: SVG Repo, www.svgrepo.com, Transformed by: SVG Repo Mixer Tools -->

<svg
   width="800px"
   height="800px"
   viewBox="0 0 24 24"
   id="Layer_1"
   data-name="Layer 1"
   fill="#E9EDC9"
   stroke="#E9EDC9"
   version="1.1"
   sodipodi:docname="facilities.svg"
   inkscape:version="1.2.2 (732a01da63, 2022-12-09)"
   xmlns:inkscape="http://www.inkscape.org/namespaces/inkscape"
   xmlns:sodipodi="http://sodipodi.sourceforge.net/DTD/sodipodi-0.dtd"
   xmlns="http://www.w3.org/2000/svg"
   xmlns:svg="http://www.w3.org/2000/svg">
  <defs
     id="defs34" />
  <sodipodi:namedview
     id="namedview32"
     pagecolor="#ffffff"
     bordercolor="#000000"
     borderopacity="0.25"
     inkscape:showpageshadow="2"
     inkscape:pageopacity="0.0"
     inkscape:pagecheckerboard="0"
     inkscape:deskcolor="#d1d1d1"
     showgrid="false"
     inkscape:zoom="1.2525"
     inkscape:cx="400.3992"
     inkscape:cy="400"
     inkscape:window-width="1920"
     inkscape:window-height="1009"
     inkscape:window-x="-8"
     inkscape:window-y="-8"
     inkscape:window-maximized="1"
     inkscape:current-layer="Layer_1" />
  <g
     id="SVGRepo_bgCarrier"
     stroke-width="0" />
  <g
     id="SVGRepo_tracerCarrier"
     stroke-linecap="round"
     stroke-linejoin="round" />
  <g
     id="SVGRepo_iconCarrier">
    <defs
       id="defs6">
      <style
         id="style4">.cls-1{fill:none;stroke:#E9EDC9;stroke-miterlimit:10;stroke-width:1.91px;}</style>
    </defs>
    <path
       class="cls-1"
       d="M3.33,23.5V5.33A3.82,3.82,0,0,1,7.15,1.5h4.78a3.82,3.82,0,0,1,3.83,3.83h0"
       id="path8" />
    <polygon
       class="cls-1"
       points="10.98 7.24 15.76 5.33 20.54 7.24 20.54 10.11 10.98 10.11 10.98 7.24"
       id="polygon10" />
    <line
       class="cls-1"
       x1="11.93"
       y1="12.98"
       x2="11.93"
       y2="14.89"
       id="line12" />
    <line
       class="cls-1"
       x1="15.76"
       y1="12.98"
       x2="15.76"
       y2="14.89"
       id="line14" />
    <line
       class="cls-1"
       x1="19.59"
       y1="12.98"
       x2="19.59"
       y2="14.89"
       id="line16" />
    <line
       class="cls-1"
       x1="11.93"
       y1="20.63"
       x2="11.93"
       y2="22.54"
       id="line18" />
    <line
       class="cls-1"
       x1="15.76"
       y1="20.63"
       x2="15.76"
       y2="22.54"
       id="line20" />
    <line
       class="cls-1"
       x1="19.59"
       y1="20.63"
       x2="19.59"
       y2="22.54"
       id="line22" />
    <line
       class="cls-1"
       x1="13.85"
       y1="16.8"
       x2="13.85"
       y2="18.72"
       id="line24" />
    <line
       class="cls-1"
       x1="17.67"
       y1="16.8"
       x2="17.67"
       y2="18.72"
       id="line26" />
    <line
       class="cls-1"
       x1="0.46"
       y1="19.67"
       x2="6.2"
       y2="19.67"
       id="line28" />
  </g>
  <path
     style="fill:#ccd5ae;stroke-width:0.798403"
     d="M 79.441118,735.32934 V 687.42515 H 47.50499 15.568862 V 655.88822 624.3513 H 47.50499 79.441118 V 397.68938 c 0,-149.01168 0.280591,-229.49445 0.81905,-234.93014 2.380398,-24.02987 10.253566,-47.89034 22.342912,-67.712585 26.3594,-43.220039 70.85954,-70.889389 122.03241,-75.87744 11.07589,-1.079617 175.98048,-1.079617 187.05637,0 38.36906,3.740006 72.51333,19.813155 99.24424,46.718452 21.52333,21.663739 35.97802,48.794813 42.63164,80.018493 l 2.12088,9.95271 80.03992,32.00772 80.03992,32.00771 v 74.09479 74.09478 H 524.94596 334.12347 l 0.20373,-74.01157 0.20374,-74.01157 78.21275,-31.28537 c 43.01701,-17.20695 78.34207,-31.67334 78.50013,-32.14752 0.5743,-1.72287 -3.9338,-14.57749 -7.86915,-22.43848 -13.87006,-27.70592 -40.45848,-46.922121 -71.2497,-51.494177 -12.07921,-1.793589 -175.75278,-1.848877 -187.37447,-0.06329 -10.50797,1.614468 -18.31381,3.927424 -26.81527,7.945654 -27.52122,13.007943 -45.73254,35.867343 -53.58972,67.267423 -1.26692,5.06308 -1.38065,21.75584 -1.60766,235.98741 l -0.24429,230.53892 h 31.94683 31.94684 v 31.53692 31.53693 H 174.4511 142.51497 v 47.90419 47.90419 H 110.97804 79.441118 Z m 573.865172,-451.21047 0.21248,-21.27035 -64.08293,-25.63777 -64.08292,-25.63777 -64.07366,25.63189 -64.07367,25.6319 v 20.94356 c 0,11.51895 0.24061,21.18417 0.5347,21.47826 0.29409,0.29408 57.86894,0.44378 127.94411,0.33267 l 127.40941,-0.20204 z"
     id="path886"
     transform="scale(0.03)" />
  <path
     style="fill:#ccd5ae;stroke-width:0.798403"
     d="m 366.06786,464.27146 v -31.53693 h 31.53693 31.53693 v 31.53693 31.53692 h -31.53693 -31.53693 z"
     id="path888"
     transform="scale(0.03)" />
  <path
     style="fill:#ccd5ae;stroke-width:0.798403"
     d="m 493.81238,464.27146 v -31.53693 h 31.53692 31.53693 v 31.53693 31.53692 H 525.3493 493.81238 Z"
     id="path890"
     transform="scale(0.03)" />
  <path
     style="fill:#ccd5ae;stroke-width:0.798403"
     d="m 621.55689,464.27146 v -31.53693 h 31.53692 31.53693 v 31.53693 31.53692 h -31.53693 -31.53692 z"
     id="path892"
     transform="scale(0.03)" />
  <path
     style="fill:#ccd5ae;stroke-width:0.798403"
     d="m 557.68463,592.01597 v -31.53693 h 31.53693 31.53692 v 31.53693 31.53692 h -31.53692 -31.53693 z"
     id="path894"
     transform="scale(0.03)" />
  <path
     style="fill:#ccd5ae;stroke-width:0.798403"
     d="m 429.94012,592.01597 v -31.53693 h 31.53693 31.53692 v 31.53693 31.53692 h -31.53692 -31.53693 z"
     id="path896"
     transform="scale(0.03)" />
  <path
     style="fill:#ccd5ae;stroke-width:0.798403"
     d="m 366.06786,719.76048 v -31.53693 h 31.53693 31.53693 v 31.53693 31.53693 h -31.53693 -31.53693 z"
     id="path898"
     transform="scale(0.03)" />
  <path
     style="fill:#ccd5ae;stroke-width:0.798403"
     d="m 493.81238,719.76048 v -31.53693 h 31.53692 31.53693 v 31.53693 31.53693 H 525.3493 493.81238 Z"
     id="path900"
     transform="scale(0.03)" />
  <path
     style="fill:#ccd5ae;stroke-width:0.798403"
     d="m 621.55689,719.76048 v -31.53693 h 31.53692 31.53693 v 31.53693 31.53693 h -31.53693 -31.53692 z"
     id="path902"
     transform="scale(0.03)" />
</svg>
