<?xml version="1.0" encoding="UTF-8" standalone="no"?>
<!-- Uploaded to: SVG Repo, www.svgrepo.com, Transformed by: SVG Repo Mixer Tools -->

<svg
   fill="#e9edc9"
   width="800px"
   height="800px"
   viewBox="0 0 56 56"
   stroke="#e9edc9"
   version="1.1"
   id="svg7"
   sodipodi:docname="favicon.svg"
   inkscape:version="1.2.2 (732a01da63, 2022-12-09)"
   xmlns:inkscape="http://www.inkscape.org/namespaces/inkscape"
   xmlns:sodipodi="http://sodipodi.sourceforge.net/DTD/sodipodi-0.dtd"
   xmlns="http://www.w3.org/2000/svg"
   xmlns:svg="http://www.w3.org/2000/svg">
  <defs
     id="defs11" />
  <sodipodi:namedview
     id="namedview9"
     pagecolor="#ffffff"
     bordercolor="#000000"
     borderopacity="0.25"
     inkscape:showpageshadow="2"
     inkscape:pageopacity="0.0"
     inkscape:pagecheckerboard="0"
     inkscape:deskcolor="#d1d1d1"
     showgrid="false"
     inkscape:zoom="1.2525"
     inkscape:cx="400.3992"
     inkscape:cy="400"
     inkscape:window-width="1920"
     inkscape:window-height="1009"
     inkscape:window-x="-8"
     inkscape:window-y="-8"
     inkscape:window-maximized="1"
     inkscape:current-layer="svg7" />
  <g
     id="SVGRepo_bgCarrier"
     stroke-width="0" />
  <g
     id="SVGRepo_tracerCarrier"
     stroke-linecap="round"
     stroke-linejoin="round" />
  <g
     id="SVGRepo_iconCarrier">
    <path
       d="M 12.6251 52.6445 L 43.3986 52.6445 C 46.7267 52.6445 48.6722 50.7695 48.6722 47.4648 L 48.6722 26.0664 L 51.6952 28.8320 C 52.1877 29.3008 52.7267 29.6289 53.3829 29.6289 C 54.4845 29.6289 55.3749 28.9492 55.3749 27.8242 C 55.3749 27.1211 55.1171 26.6758 54.6722 26.2774 L 46.5391 18.8476 L 46.5391 5.0430 C 46.5391 4.0117 45.8829 3.3555 44.8519 3.3555 L 41.7813 3.3555 C 40.7735 3.3555 40.0704 4.0117 40.0704 5.0430 L 40.0704 12.9648 L 30.8126 4.5274 C 29.9923 3.7774 29.0079 3.3555 28.0001 3.3555 C 26.9923 3.3555 26.0079 3.7774 25.1876 4.5274 L 1.3282 26.2774 C .9064 26.6758 .6251 27.1211 .6251 27.8242 C .6251 28.9492 1.5157 29.6289 2.6173 29.6289 C 3.2970 29.6289 3.8360 29.3008 4.3048 28.8320 L 7.3282 26.0898 L 7.3282 47.4648 C 7.3282 50.7695 9.2735 52.6445 12.6251 52.6445 Z M 34.7501 33.3086 C 34.7501 32.2305 34.0470 31.5508 32.9689 31.5508 L 23.0313 31.5508 C 21.9532 31.5508 21.2267 32.2305 21.2267 33.3086 L 21.2267 48.8711 L 13.4220 48.8711 C 11.9220 48.8711 11.1017 48.0508 11.1017 46.5273 L 11.1017 22.6445 L 27.1798 7.9961 C 27.4142 7.7617 27.6954 7.6211 28.0001 7.6211 C 28.3048 7.6211 28.5860 7.7383 28.8439 7.9961 L 44.8984 22.6445 L 44.8984 46.5273 C 44.8984 48.0508 44.0781 48.8711 42.6017 48.8711 L 34.7501 48.8711 Z"
       id="path4" />
  </g>
  <path
     style="fill:#ccd5ae;stroke-width:0.798403"
     d="m 161.06575,757.28747 c -33.31664,-6.03929 -53.5809,-25.09401 -61.136217,-57.48707 -1.666563,-7.14531 -1.677325,-8.03792 -1.918451,-159.08184 -0.133373,-83.54291 -0.420104,-151.8962 -0.637182,-151.8962 -0.217086,0 -8.921605,7.74554 -19.343379,17.2123 C 57.165721,424.9875 52.647537,427.98172 42.575333,429.531 27.79881,431.8039 12.47916,424.83221 6.1479076,412.95356 -0.96591768,399.60666 1.5672808,383.88068 12.683773,372.37921 18.478643,366.38366 354.10037,60.438323 360.47904,55.336743 c 5.87216,-4.696477 17.3169,-10.27827 25.07781,-12.230873 8.50245,-2.139167 20.38385,-2.139167 28.8863,0 7.75899,1.95212 19.204,7.533488 25.07781,12.229655 2.41517,1.930951 31.6966,28.407751 65.06986,58.837335 l 60.67864,55.32651 0.41676,-52.61396 c 0.29695,-37.488246 0.68815,-53.379263 1.36077,-55.276042 2.73834,-7.7221 8.51556,-14.037362 16.09073,-17.589276 l 4.48703,-2.103924 29.82337,-0.236248 c 32.22906,-0.255305 33.976,-0.07397 40.83976,4.239138 3.36988,2.117602 8.20205,7.337922 9.98653,10.788718 3.5199,6.806738 3.55341,7.853283 3.56802,111.456004 l 0.0139,98.30352 58.2902,53.25026 c 32.05961,29.28764 59.53193,54.87649 61.04959,56.86412 7.70532,10.09134 8.75162,24.79558 2.59368,36.449 -7.70188,14.57513 -28.58481,21.1032 -44.99956,14.06702 -5.91616,-2.53596 -10.60081,-6.26261 -28.47074,-22.64854 -9.13368,-8.37519 -16.93999,-15.34467 -17.34735,-15.48776 -0.45304,-0.15913 -0.83482,58.74862 -0.98317,151.6966 -0.24115,151.10539 -0.2519,151.99703 -1.91847,159.1424 -5.52237,23.6769 -17.30372,39.64035 -36.57308,49.55566 -7.62142,3.9217 -14.55662,6.14079 -24.67982,7.89692 -6.28267,1.08989 -33.57478,1.22185 -239.52096,1.158 -188.53348,-0.0584 -233.52583,-0.27064 -238.23086,-1.12351 z m 135.72716,-178.26266 0.21308,-112.39236 2.61922,-5.32007 c 4.26293,-8.65874 12.38769,-14.82967 21.90016,-16.63368 5.945,-1.12744 151.84783,-1.01736 157.27765,0.11867 5.75713,1.20451 12.84492,5.0794 16.31329,8.91847 3.46693,3.83749 6.38323,9.9699 7.47239,15.71302 0.51575,2.71954 0.80451,43.33084 0.80451,113.14538 v 108.9032 l 56.88623,-0.22974 56.88623,-0.22974 4.2217,-1.90766 c 5.65514,-2.55541 9.97158,-7.56364 11.63822,-13.50353 1.19047,-4.24278 1.30492,-19.87488 1.29635,-177.05635 L 634.31254,326.1477 520.09162,221.95609 C 457.2701,164.6507 405.0887,117.3281 404.13294,116.79476 c -3.12859,-1.74586 -6.57128,-1.21006 -10.07826,1.56851 -1.80127,1.42715 -53.91886,48.76248 -115.81687,105.18962 l -112.54182,102.59481 -0.0136,172.40272 c -0.0124,156.55922 0.10527,172.82656 1.28047,177.01496 2.19122,7.80945 8.34768,13.3985 16.54519,15.02031 1.8251,0.36109 28.01289,0.69588 58.19511,0.74399 l 54.87671,0.0875 z"
     id="path1589"
     transform="scale(0.07)" />
</svg>
