<?xml version="1.0" encoding="UTF-8" standalone="no"?>
<!-- Uploaded to: SVG Repo, www.svgrepo.com, Transformed by: SVG Repo Mixer Tools -->

<svg
   version="1.0"
   id="Layer_1"
   width="800px"
   height="800px"
   viewBox="0 0 64 64"
   enable-background="new 0 0 64 64"
   xml:space="preserve"
   fill="#000000"
   sodipodi:docname="location.svg"
   inkscape:version="1.2.2 (732a01da63, 2022-12-09)"
   xmlns:inkscape="http://www.inkscape.org/namespaces/inkscape"
   xmlns:sodipodi="http://sodipodi.sourceforge.net/DTD/sodipodi-0.dtd"
   xmlns="http://www.w3.org/2000/svg"
   xmlns:svg="http://www.w3.org/2000/svg"><defs
   id="defs10" /><sodipodi:namedview
   id="namedview8"
   pagecolor="#ffffff"
   bordercolor="#000000"
   borderopacity="0.25"
   inkscape:showpageshadow="2"
   inkscape:pageopacity="0.0"
   inkscape:pagecheckerboard="0"
   inkscape:deskcolor="#d1d1d1"
   showgrid="false"
   inkscape:zoom="1.2525"
   inkscape:cx="400.3992"
   inkscape:cy="400"
   inkscape:window-width="2560"
   inkscape:window-height="1369"
   inkscape:window-x="1912"
   inkscape:window-y="-8"
   inkscape:window-maximized="1"
   inkscape:current-layer="Layer_1" />

<g
   id="SVGRepo_bgCarrier"
   stroke-width="0" />

<g
   id="SVGRepo_tracerCarrier"
   stroke-linecap="round"
   stroke-linejoin="round" />

<g
   id="SVGRepo_iconCarrier"> <path
   fill="#CCD5AE"
   d="M32,0C18.746,0,8,10.746,8,24c0,5.219,1.711,10.008,4.555,13.93c0.051,0.094,0.059,0.199,0.117,0.289l16,24 C29.414,63.332,30.664,64,32,64s2.586-0.668,3.328-1.781l16-24c0.059-0.09,0.066-0.195,0.117-0.289C54.289,34.008,56,29.219,56,24 C56,10.746,45.254,0,32,0z M32,32c-4.418,0-8-3.582-8-8s3.582-8,8-8s8,3.582,8,8S36.418,32,32,32z"
   id="path4" /> </g>

<path
   style="fill:#ffffff;stroke-width:0.798403"
   d="m 394.41118,799.08263 c -6.1168,-0.5679 -14.13175,-3.20962 -19.77925,-6.51928 -9.74032,-5.7082 -7.13072,-1.98634 -114.68087,-163.5597 -56.02697,-84.16972 -103.654,-155.84717 -105.83783,-159.28323 -2.18383,-3.43604 -6.47253,-10.19946 -9.53045,-15.0298 -11.83797,-18.69943 -24.54272,-46.64536 -31.21536,-68.66268 -9.06091,-29.89774 -12.68645,-54.45592 -12.67088,-85.82834 0.0104,-20.91532 0.87771,-31.95551 3.94187,-50.17628 C 123.68421,136.76915 206.8234,43.747786 317.34069,12.038641 345.3477,4.0029858 369.36533,0.71325253 400,0.71665621 c 27.44295,0.00305 48.90699,2.59687219 73.6813,8.90401919 56.08403,14.2781066 108.33963,45.4092056 146.39227,87.2127136 44.99671,49.432041 71.31449,108.056541 78.21306,174.224491 1.29773,12.44717 1.30394,45.25398 0.0109,57.48503 -3.89874,36.87847 -14.27305,72.09445 -30.81151,104.59082 -5.77987,11.35686 -10.3559,19.10622 -21.92287,37.12575 -1.83217,2.85429 -49.25333,74.18866 -105.38032,158.52083 -88.202,132.52562 -102.71765,153.93622 -106.97624,157.79003 -10.7922,9.76638 -23.66221,13.91724 -38.79537,12.51229 z m 23.24521,-400.31852 c 41.57408,-7.24991 74.53067,-40.81803 81.34914,-82.85862 8.68172,-53.52875 -27.02755,-104.112 -81.04146,-114.79769 -8.03682,-1.58994 -29.31005,-1.35641 -37.52495,0.41195 -47.50547,10.22613 -80.6528,50.60274 -80.63551,98.22174 0.007,20.65032 5.58374,39.01676 17.09203,56.29592 14.60776,21.93289 39.04897,38.02622 64.8186,42.67985 8.65101,1.56225 27.11419,1.58632 35.94215,0.0469 z"
   id="path862"
   transform="scale(0.08)" /></svg>
