<?xml version="1.0" encoding="UTF-8" standalone="no"?>
<!-- Uploaded to: SVG Repo, www.svgrepo.com, Transformed by: SVG Repo Mixer Tools -->

<svg
   viewBox="0 0 600 600"
   version="1.1"
   id="svg9724"
   sodipodi:docname="menu.svg"
   inkscape:version="1.2.2 (732a01da63, 2022-12-09)"
   width="800px"
   height="800px"
   fill="#000000"
   xmlns:inkscape="http://www.inkscape.org/namespaces/inkscape"
   xmlns:sodipodi="http://sodipodi.sourceforge.net/DTD/sodipodi-0.dtd"
   xmlns="http://www.w3.org/2000/svg"
   xmlns:svg="http://www.w3.org/2000/svg">
  <defs
     id="defs22" />
  <g
     id="SVGRepo_bgCarrier"
     stroke-width="0" />
  <g
     id="SVGRepo_tracerCarrier"
     stroke-linecap="round"
     stroke-linejoin="round" />
  <g
     id="SVGRepo_iconCarrier">
    <defs
       id="defs9728" />
    <sodipodi:namedview
       id="namedview9726"
       pagecolor="#ffffff"
       bordercolor="#666666"
       borderopacity="1.0"
       inkscape:showpageshadow="2"
       inkscape:pageopacity="0.0"
       inkscape:pagecheckerboard="0"
       inkscape:deskcolor="#d1d1d1"
       showgrid="true"
       inkscape:zoom="0.59480855"
       inkscape:cx="-47.914577"
       inkscape:cy="514.45125"
       inkscape:window-width="1920"
       inkscape:window-height="1009"
       inkscape:window-x="-8"
       inkscape:window-y="-8"
       inkscape:window-maximized="1"
       inkscape:current-layer="g10449"
       showguides="true">
      <inkscape:grid
         type="xygrid"
         id="grid9972"
         originx="0"
         originy="0" />
      <sodipodi:guide
         position="-260,300"
         orientation="0,-1"
         id="guide383"
         inkscape:locked="false" />
      <sodipodi:guide
         position="300,520"
         orientation="1,0"
         id="guide385"
         inkscape:locked="false" />
      <sodipodi:guide
         position="240,520"
         orientation="0,-1"
         id="guide939"
         inkscape:locked="false" />
      <sodipodi:guide
         position="220,80"
         orientation="0,-1"
         id="guide941"
         inkscape:locked="false" />
    </sodipodi:namedview>
    <g
       id="g10449"
       transform="matrix(0.95173205,0,0,0.95115787,13.901174,12.168794)"
       style="stroke-width:1.05103">
      <g
         id="path10026"
         inkscape:transform-center-x="-0.59233046"
         inkscape:transform-center-y="-20.347403"
         transform="matrix(1.3807551,0,0,1.2700888,273.60014,263.99768)" />
      <g
         id="g11314"
         transform="matrix(1.5092301,0,0,1.3955555,36.774048,-9.4503933)"
         style="stroke-width:50.6951" />
      <path
         style="color:#a4c3b2;fill:#a4c3b2;stroke-width:1.05104;stroke-linecap:square;stroke-linejoin:round;-inkscape-stroke:none;paint-order:stroke fill markers"
         d="m 116.82051,533.90848 c 0,-35.77923 -30.001428,-65.78273 -65.71225,-65.78274 -35.710867,10e-6 -65.714445,30.00351 -65.714445,65.78274 0,35.7791 30.003578,65.78265 65.714445,65.78265 35.710822,0 65.71225,-30.00355 65.71225,-65.78265 z"
         id="path1237" />
      <path
         style="color:#a4c3b2;fill:#a4c3b2;stroke-width:1.05104;stroke-linecap:square;stroke-linejoin:round;-inkscape-stroke:none;paint-order:stroke fill markers"
         d="m 116.82051,302.6125 c 0,-35.77918 -30.001428,-65.78266 -65.71225,-65.78267 -35.710867,1e-5 -65.714445,30.00349 -65.714445,65.78267 2.6e-5,35.77922 30.003597,65.78043 65.714445,65.78045 35.710806,-2e-5 65.71224,-30.00123 65.71225,-65.78045 z"
         id="path1235" />
      <path
         style="color:#a4c3b2;fill:#a4c3b2;stroke-width:1.05104;stroke-linecap:square;stroke-linejoin:round;-inkscape-stroke:none;paint-order:stroke fill markers"
         d="m 116.82051,71.313209 c 0,-35.779199 -30.001428,-65.7804582 -65.71225,-65.7804662 -35.710867,8e-6 -65.714445,30.0012672 -65.714445,65.7804662 0,35.779271 30.003578,65.782741 65.714445,65.782751 35.710822,-1e-5 65.71225,-30.00348 65.71225,-65.782751 z"
         id="path346" />
      <path
         style="color:#a4c3b2;fill:#a4c3b2;stroke-width:1.05103;stroke-linecap:round;-inkscape-stroke:none"
         d="m 211.58808,21.527961 a 47.572886,49.785578 0 0 0 -47.57256,49.787552 47.572886,49.785578 0 0 0 47.57256,49.785227 H 568.24859 A 47.572886,49.785578 0 0 0 615.82336,71.315513 47.572886,49.785578 0 0 0 568.24859,21.527961 Z"
         id="path1011" />
      <path
         style="color:#a4c3b2;fill:#a4c3b2;stroke-width:1.05103;stroke-linecap:round;-inkscape-stroke:none"
         d="m 211.58808,252.82616 a 47.572886,49.785578 0 0 0 -47.57256,49.78524 47.572886,49.785578 0 0 0 47.57256,49.78523 h 356.66051 a 47.572886,49.785578 0 0 0 47.57477,-49.78523 47.572886,49.785578 0 0 0 -47.57477,-49.78524 z"
         id="path1011-7" />
      <path
         style="color:#a4c3b2;fill:#a4c3b2;stroke-width:1.05103;stroke-linecap:round;-inkscape-stroke:none"
         d="m 211.58808,484.1232 a 47.572886,49.785578 0 0 0 -47.57256,49.78523 47.572886,49.785578 0 0 0 47.57256,49.78524 h 356.66051 a 47.572886,49.785578 0 0 0 47.57477,-49.78524 47.572886,49.785578 0 0 0 -47.57477,-49.78523 z"
         id="path1011-5" />
      <path
         style="fill:#ccd5ae;stroke-width:1.76701"
         d="m 278.754,168.10653 c -18.85323,-2.75567 -36.03232,-15.86683 -45.16688,-34.47154 -4.46816,-9.10048 -4.94212,-11.67815 -4.94212,-26.87795 0,-14.785094 0.55169,-17.989632 4.57571,-26.578241 6.10418,-13.028377 20.12817,-26.598966 32.75258,-31.693678 l 9.74568,-3.932971 231.86033,-0.455004 c 152.50307,-0.299274 235.03787,0.132395 241.14423,1.261219 19.60468,3.624121 35.39363,15.802684 43.95374,33.903036 6.12016,12.941055 7.75386,25.375169 5.11388,38.921609 -5.19515,26.65756 -24.46387,45.59753 -50.72405,49.8586 -12.52499,2.03235 -454.43362,2.09361 -468.3131,0.0649 z"
         id="path874"
         transform="matrix(0.78803693,0,0,0.78851264,-14.606185,-12.793664)" />
      <path
         style="fill:#ccd5ae;stroke-width:1.76701"
         d="M 70.871607,188.13066 C 39.228738,183.50993 9.3263523,154.97342 2.6928154,123.06612 -6.4886651,78.903213 23.094128,35.336548 68.733022,25.808516 125.64686,13.926614 177.86323,69.894878 163.02236,126.87282 c -3.74045,14.36054 -10.30983,25.56652 -21.84221,37.25822 -18.93222,19.19375 -44.186341,27.81418 -70.308543,23.99962 z"
         id="path876"
         transform="matrix(0.78803693,0,0,0.78851264,-14.606185,-12.793664)" />
      <path
         style="fill:#ccd5ae;stroke-width:1.76701"
         d="M 63.490261,479.91645 C 48.96071,476.00347 37.617107,469.20456 26.046609,457.47421 13.762175,445.02006 7.2255278,434.02295 3.4177535,419.40392 -9.5590543,369.58259 31.116464,317.78921 83.220055,317.78921 c 37.055115,0 70.222105,25.88472 79.937255,62.38593 15.45606,58.07062 -41.76556,115.33489 -99.667049,99.74131 z"
         id="path878"
         transform="matrix(0.78803693,0,0,0.78851264,-14.606185,-12.793664)" />
      <path
         style="fill:#ccd5ae;stroke-width:1.76701"
         d="m 273.84051,460.73829 c -16.51064,-3.94162 -32.6206,-17.80866 -40.68977,-35.02473 -3.89604,-8.31245 -4.50574,-11.7745 -4.50574,-25.58481 0,-14.4055 0.51241,-17.04302 5.22599,-26.89941 6.27017,-13.11131 16.65829,-23.74482 29.22758,-29.91799 l 9.25797,-4.54689 h 241.2541 241.2541 l 9.56635,4.69783 c 12.32558,6.05282 25.15364,19.99593 30.09854,32.71479 5.02873,12.93444 5.37304,32.98546 0.77906,45.36864 -4.36945,11.77799 -13.53186,23.61616 -23.42399,30.26466 -16.59986,11.15675 -1.19124,10.54092 -258.9995,10.35117 -128.5921,-0.0947 -236.1622,-0.73512 -239.04469,-1.42326 z"
         id="path880"
         transform="matrix(0.78803693,0,0,0.78851264,-14.606185,-12.793664)" />
      <path
         style="fill:#ccd5ae;stroke-width:1.76701"
         d="m 73.132775,774.89454 c -26.278902,-3.20752 -50.860773,-20.67448 -62.939328,-44.72235 -16.1721359,-32.198 -10.54267853,-67.95542 14.758469,-93.74346 34.109617,-34.76601 86.064694,-33.89693 118.861734,1.98826 35.35513,38.68413 26.38859,98.53068 -18.77701,125.32591 -16.72888,9.92468 -33.114041,13.44507 -51.903865,11.15164 z"
         id="path882"
         transform="matrix(0.78803693,0,0,0.78851264,-14.606185,-12.793664)" />
      <path
         style="fill:#ccd5ae;stroke-width:1.76701"
         d="m 266.91609,751.84302 c -40.12708,-16.12894 -52.15605,-68.87502 -23.05355,-101.088 8.09431,-8.95943 18.71108,-15.17491 30.76793,-18.01277 7.65129,-1.80091 54.05994,-2.23987 239.04725,-2.26103 252.83964,-0.0289 240.67541,-0.51618 257.55721,10.31684 9.56551,6.13817 16.68476,14.75153 22.26229,26.93445 13.62265,29.7558 0.93672,66.11577 -28.5452,81.81528 l -8.40607,4.47634 -241.2541,0.34071 c -223.77844,0.31603 -241.76996,0.13336 -248.37576,-2.52182 z"
         id="path884"
         transform="matrix(0.78803693,0,0,0.78851264,-14.606185,-12.793664)" />
    </g>
  </g>
</svg>
