<?xml version="1.0" encoding="UTF-8" standalone="no"?>
<!-- Uploaded to: SVG Repo, www.svgrepo.com, Transformed by: SVG Repo Mixer Tools -->

<svg
   width="800px"
   height="800px"
   viewBox="0 0 24 24"
   fill="none"
   version="1.1"
   id="svg11"
   sodipodi:docname="phone.svg"
   inkscape:version="1.2.2 (732a01da63, 2022-12-09)"
   xmlns:inkscape="http://www.inkscape.org/namespaces/inkscape"
   xmlns:sodipodi="http://sodipodi.sourceforge.net/DTD/sodipodi-0.dtd"
   xmlns="http://www.w3.org/2000/svg"
   xmlns:svg="http://www.w3.org/2000/svg">
  <defs
     id="defs15" />
  <sodipodi:namedview
     id="namedview13"
     pagecolor="#ffffff"
     bordercolor="#000000"
     borderopacity="0.25"
     inkscape:showpageshadow="2"
     inkscape:pageopacity="0.0"
     inkscape:pagecheckerboard="0"
     inkscape:deskcolor="#d1d1d1"
     showgrid="false"
     inkscape:zoom="1.2525"
     inkscape:cx="400.3992"
     inkscape:cy="400"
     inkscape:window-width="2560"
     inkscape:window-height="1369"
     inkscape:window-x="1912"
     inkscape:window-y="-8"
     inkscape:window-maximized="1"
     inkscape:current-layer="svg11" />
  <g
     id="SVGRepo_bgCarrier"
     stroke-width="0" />
  <g
     id="SVGRepo_tracerCarrier"
     stroke-linecap="round"
     stroke-linejoin="round" />
  <g
     id="SVGRepo_iconCarrier">
    <path
       d="M10.0376 5.31617L10.6866 6.4791C11.2723 7.52858 11.0372 8.90532 10.1147 9.8278C10.1147 9.8278 10.1147 9.8278 10.1147 9.8278C10.1146 9.82792 8.99588 10.9468 11.0245 12.9755C13.0525 15.0035 14.1714 13.8861 14.1722 13.8853C14.1722 13.8853 14.1722 13.8853 14.1722 13.8853C15.0947 12.9628 16.4714 12.7277 17.5209 13.3134L18.6838 13.9624C20.2686 14.8468 20.4557 17.0692 19.0628 18.4622C18.2258 19.2992 17.2004 19.9505 16.0669 19.9934C14.1588 20.0658 10.9183 19.5829 7.6677 16.3323C4.41713 13.0817 3.93421 9.84122 4.00655 7.93309C4.04952 6.7996 4.7008 5.77423 5.53781 4.93723C6.93076 3.54428 9.15317 3.73144 10.0376 5.31617Z"
       fill="#CCD5AE"
       id="path4" />
    <path
       d="M13.2595 1.87983C13.3257 1.47094 13.7122 1.19357 14.1211 1.25976C14.1464 1.26461 14.2279 1.27983 14.2705 1.28933C14.3559 1.30834 14.4749 1.33759 14.6233 1.38082C14.9201 1.46726 15.3347 1.60967 15.8323 1.8378C16.8286 2.29456 18.1544 3.09356 19.5302 4.46936C20.906 5.84516 21.705 7.17097 22.1617 8.16725C22.3899 8.66487 22.5323 9.07947 22.6187 9.37625C22.6619 9.52466 22.6912 9.64369 22.7102 9.72901C22.7197 9.77168 22.7267 9.80594 22.7315 9.83125L22.7373 9.86245C22.8034 10.2713 22.5286 10.6739 22.1197 10.7401C21.712 10.8061 21.3279 10.53 21.2601 10.1231C21.258 10.1121 21.2522 10.0828 21.2461 10.0551C21.2337 9.9997 21.2124 9.91188 21.1786 9.79572C21.1109 9.56339 20.9934 9.21806 20.7982 8.79238C20.4084 7.94207 19.7074 6.76789 18.4695 5.53002C17.2317 4.29216 16.0575 3.59117 15.2072 3.20134C14.7815 3.00618 14.4362 2.88865 14.2038 2.82097C14.0877 2.78714 13.9417 2.75363 13.8863 2.7413C13.4793 2.67347 13.1935 2.28755 13.2595 1.87983Z"
       fill="#CCD5AE"
       id="path6" />
    <path
       fill-rule="evenodd"
       clip-rule="evenodd"
       d="M13.4857 5.3293C13.5995 4.93102 14.0146 4.7004 14.4129 4.81419L14.2069 5.53534C14.4129 4.81419 14.4129 4.81419 14.4129 4.81419L14.4144 4.81461L14.4159 4.81505L14.4192 4.81602L14.427 4.81834L14.4468 4.8245C14.4618 4.82932 14.4807 4.8356 14.5031 4.84357C14.548 4.85951 14.6074 4.88217 14.6802 4.91337C14.8259 4.97581 15.0249 5.07223 15.2695 5.21694C15.7589 5.50662 16.4271 5.9878 17.2121 6.77277C17.9971 7.55775 18.4782 8.22593 18.7679 8.7154C18.9126 8.95991 19.009 9.15897 19.0715 9.30466C19.1027 9.37746 19.1254 9.43682 19.1413 9.48173C19.1493 9.50418 19.1555 9.52301 19.1604 9.53809L19.1665 9.55788L19.1688 9.56563L19.1698 9.56896L19.1702 9.5705C19.1702 9.5705 19.1707 9.57194 18.4495 9.77798L19.1707 9.57194C19.2845 9.97021 19.0538 10.3853 18.6556 10.4991C18.2607 10.6119 17.8492 10.3862 17.7313 9.99413L17.7276 9.98335C17.7223 9.96832 17.7113 9.93874 17.6928 9.89554C17.6558 9.8092 17.5887 9.66797 17.4771 9.47938C17.2541 9.10264 16.8514 8.53339 16.1514 7.83343C15.4515 7.13348 14.8822 6.73078 14.5055 6.50781C14.3169 6.39619 14.1757 6.32909 14.0893 6.29209C14.0461 6.27358 14.0165 6.26254 14.0015 6.25721L13.9907 6.25352C13.5987 6.13564 13.3729 5.72419 13.4857 5.3293Z"
       fill="#CCD5AE"
       id="path8" />
  </g>
  <path
     style="fill:#ffffff;stroke-width:0.798403;fill-opacity:1"
     d="M 509.38124,665.77867 C 408.39879,661.56346 308.32428,607.5849 228.30667,514.17166 187.20731,466.19191 158.22104,411.89214 144.13157,356.48703 c -7.39548,-29.08179 -9.87225,-48.72188 -9.91747,-78.64272 -0.0302,-19.96097 0.13251,-22.71786 1.7903,-30.33932 5.72313,-26.31135 18.77548,-49.76031 41.8986,-75.27211 18.72581,-20.66024 38.43575,-32.23127 62.76318,-36.84611 8.61878,-1.63495 25.77253,-1.64345 34.34641,-0.017 24.10435,4.57251 44.6462,18.47779 56.97643,38.56874 8.98147,14.63446 26.99272,47.98461 29.23924,54.14021 7.20709,19.74789 6.62063,43.87874 -1.56376,64.34432 -4.97351,12.43654 -11.06981,22.00876 -21.42368,33.63876 -8.14426,9.14805 -11.3307,17.89577 -11.37347,31.22364 -0.0377,11.73172 2.29031,20.72972 8.66748,33.50144 9.90967,19.84631 31.68926,44.70863 53.5318,61.10882 32.70489,24.55602 64.44904,28.28959 84.82295,9.97637 12.62708,-11.34994 25.5115,-19.13121 38.81075,-23.43895 11.34613,-3.67511 17.10384,-4.50774 30.61304,-4.42707 20.68617,0.12356 26.26757,2.10519 61.43837,21.8132 23.22527,13.01432 27.65227,15.88558 34.79527,22.56751 12.46121,11.65685 21.29095,27.93046 25.26435,46.56335 1.58378,7.42696 1.32552,28.11573 -0.45348,36.32735 -4.62297,21.33908 -14.24021,38.53683 -30.81139,55.09758 -27.80498,27.78747 -58.36184,44.76628 -87.45368,48.59335 -8.8034,1.15809 -21.60853,1.44073 -36.71157,0.81029 z"
     id="path867"
     transform="scale(0.03)" />
  <path
     style="fill:#ffffff;fill-opacity:1;stroke-width:0.798403"
     d="m 724.60173,356.30787 c -4.79302,-1.69244 -12.22092,-9.07819 -13.87163,-13.7929 -0.69186,-1.97605 -2.5093,-8.29851 -4.03878,-14.04992 -3.31061,-12.44914 -8.2778,-25.38637 -15.62037,-40.68388 C 647.87196,197.78045 552.20427,114.01644 467.62902,92.141555 456.24885,89.198141 452.5688,87.370778 448.35397,82.570358 c -8.57746,-9.769195 -8.04382,-24.333631 1.21988,-33.293279 9.27278,-8.968434 19.73596,-9.006049 46.23453,-0.166212 20.27352,6.763179 47.74565,19.522436 67.06587,31.148326 87.18978,52.466197 159.96986,139.362407 188.24404,224.755107 8.77714,26.50837 8.57938,36.01992 -0.94673,45.53598 -3.03641,3.03321 -5.72066,4.88597 -8.39762,5.79631 -4.84076,1.64618 -12.44914,1.62903 -17.17221,-0.0387 z"
     id="path938"
     transform="scale(0.03)" />
  <path
     style="fill:#ffffff;fill-opacity:1;stroke-width:0.798403"
     d="m 608.78244,349.8002 c -8.54848,-2.81449 -14.02615,-8.47649 -18.28461,-18.89988 -13.44302,-32.90439 -59.12855,-83.18488 -99.87907,-109.9247 -7.70905,-5.05856 -16.10579,-9.4909 -27.02412,-14.26508 -5.53864,-2.42184 -11.4841,-8.84254 -13.32765,-14.39296 -3.91236,-11.77899 2.22269,-25.22787 13.90674,-30.48553 6.30057,-2.83518 13.19965,-2.33319 23.1216,1.68237 41.32889,16.72641 98.35043,67.55127 131.61488,117.31197 6.80296,10.17662 18.42336,32.44604 18.80972,36.04708 0.16371,1.52581 -0.35013,2.10771 -2.59019,2.93327 -3.23836,1.19348 -2.35708,1.4869 1.30845,0.43564 2.46806,-0.70783 2.50034,-0.67962 2.93567,2.56603 1.32464,9.87587 -4.42851,20.52921 -13.47722,24.95633 -4.67912,2.28929 -13.24789,3.3084 -17.1142,2.03546 z m 17.34863,-26.92928 c -0.26531,-0.2653 -0.95393,-0.29366 -1.53027,-0.063 -0.63691,0.25486 -0.44773,0.44405 0.48237,0.48236 0.84164,0.0346 1.31321,-0.15403 1.0479,-0.41934 z m 5.1158,-1.74338 c -0.576,-0.192 -1.42687,0.0305 -1.89082,0.49446 -0.59247,0.59247 -0.28075,0.69637 1.04727,0.34909 1.0796,-0.28232 1.44152,-0.64423 0.84355,-0.84355 z"
     id="path940"
     transform="scale(0.03)" />
</svg>
