<svg id="visual" viewBox="0 0 900 600" width="900" height="600" xmlns="http://www.w3.org/2000/svg" xmlns:xlink="http://www.w3.org/1999/xlink" version="1.1"><path d="M0 121L21.5 117.5C43 114 86 107 128.8 99.5C171.7 92 214.3 84 257.2 93C300 102 343 128 385.8 127.7C428.7 127.3 471.3 100.7 514.2 97.7C557 94.7 600 115.3 642.8 122C685.7 128.7 728.3 121.3 771.2 109C814 96.7 857 79.3 878.5 70.7L900 62L900 0L878.5 0C857 0 814 0 771.2 0C728.3 0 685.7 0 642.8 0C600 0 557 0 514.2 0C471.3 0 428.7 0 385.8 0C343 0 300 0 257.2 0C214.3 0 171.7 0 128.8 0C86 0 43 0 21.5 0L0 0Z" fill="#E9EDC9" stroke-linecap="round" stroke-linejoin="miter"></path></svg>